<mxfile host="Electron" modified="2024-07-22T18:51:57.652Z" agent="Mozilla/5.0 (Macintosh; Intel Mac OS X 10_15_7) AppleWebKit/537.36 (KHTML, like Gecko) draw.io/24.6.4 Chrome/124.0.6367.207 Electron/30.0.6 Safari/537.36" etag="24ffKJiQlIHPCx1TrIqc" version="24.6.4" type="device">
  <diagram name="Page-1" id="PYlrYKxPpt4eErfjxE6B">
    <mxGraphModel dx="2098" dy="1574" grid="1" gridSize="10" guides="0" tooltips="1" connect="1" arrows="0" fold="1" page="1" pageScale="1" pageWidth="1654" pageHeight="1169" background="none" math="0" shadow="0">
      <root>
        <mxCell id="0" />
        <mxCell id="1" parent="0" />
        <mxCell id="WPn6TP8sn5g8j_nVukEv-1" value="«constraint rewriter»&lt;br style=&quot;font-size: 30px;&quot;&gt;&lt;b&gt;sql2shacl&lt;/b&gt;" style="html=1;dropTarget=0;whiteSpace=wrap;fontSize=30;verticalAlign=top;labelBackgroundColor=none;flipH=0;" vertex="1" parent="1">
          <mxGeometry x="260" y="60" width="1160" height="930" as="geometry" />
        </mxCell>
        <mxCell id="WPn6TP8sn5g8j_nVukEv-2" value="" style="shape=module;jettyWidth=8;jettyHeight=4;fontSize=30;verticalAlign=top;labelBackgroundColor=none;" vertex="1" parent="WPn6TP8sn5g8j_nVukEv-1">
          <mxGeometry x="1" width="20" height="20" relative="1" as="geometry">
            <mxPoint x="-27" y="7" as="offset" />
          </mxGeometry>
        </mxCell>
        <mxCell id="WPn6TP8sn5g8j_nVukEv-40" value="" style="group" vertex="1" connectable="0" parent="1">
          <mxGeometry x="680" y="180" width="290" height="180" as="geometry" />
        </mxCell>
        <mxCell id="WPn6TP8sn5g8j_nVukEv-32" value="&lt;font style=&quot;font-size: 30px;&quot;&gt;cli&lt;/font&gt;" style="shape=module;align=center;spacingLeft=20;align=center;verticalAlign=middle;whiteSpace=wrap;html=1;flipH=0;" vertex="1" parent="WPn6TP8sn5g8j_nVukEv-40">
          <mxGeometry x="110" width="70" height="50" as="geometry" />
        </mxCell>
        <mxCell id="WPn6TP8sn5g8j_nVukEv-29" value="&lt;font style=&quot;font-size: 30px;&quot;&gt;constraint_rewriter&lt;/font&gt;" style="shape=module;align=left;spacingLeft=20;align=center;verticalAlign=top;whiteSpace=wrap;html=1;" vertex="1" parent="WPn6TP8sn5g8j_nVukEv-40">
          <mxGeometry y="140" width="290" height="50" as="geometry" />
        </mxCell>
        <mxCell id="WPn6TP8sn5g8j_nVukEv-39" value="&lt;font style=&quot;font-size: 20px;&quot;&gt;Use&lt;/font&gt;" style="endArrow=open;endSize=12;dashed=1;html=1;rounded=0;exitX=0.5;exitY=1;exitDx=0;exitDy=0;entryX=0.5;entryY=0;entryDx=0;entryDy=0;" edge="1" parent="WPn6TP8sn5g8j_nVukEv-40" source="WPn6TP8sn5g8j_nVukEv-32" target="WPn6TP8sn5g8j_nVukEv-29">
          <mxGeometry width="160" relative="1" as="geometry">
            <mxPoint x="20.085106382978722" y="281.4705882352941" as="sourcePoint" />
            <mxPoint x="180.7659574468085" y="281.4705882352941" as="targetPoint" />
          </mxGeometry>
        </mxCell>
        <mxCell id="WPn6TP8sn5g8j_nVukEv-36" value="" style="group" vertex="1" connectable="0" parent="1">
          <mxGeometry x="850" y="450" width="530" height="510" as="geometry" />
        </mxCell>
        <mxCell id="WPn6TP8sn5g8j_nVukEv-3" value="«parser»&lt;br style=&quot;font-size: 30px;&quot;&gt;&lt;b style=&quot;font-size: 30px;&quot;&gt;sql&lt;/b&gt;" style="html=1;dropTarget=0;whiteSpace=wrap;fontSize=30;verticalAlign=top;labelBackgroundColor=none;" vertex="1" parent="WPn6TP8sn5g8j_nVukEv-36">
          <mxGeometry width="530" height="510" as="geometry" />
        </mxCell>
        <mxCell id="WPn6TP8sn5g8j_nVukEv-4" value="" style="shape=module;jettyWidth=8;jettyHeight=4;fontSize=30;verticalAlign=top;labelBackgroundColor=none;" vertex="1" parent="WPn6TP8sn5g8j_nVukEv-3">
          <mxGeometry x="1" width="20" height="20" relative="1" as="geometry">
            <mxPoint x="-27" y="7" as="offset" />
          </mxGeometry>
        </mxCell>
        <mxCell id="WPn6TP8sn5g8j_nVukEv-12" value="relation" style="shape=module;align=left;spacingLeft=20;align=center;verticalAlign=middle;whiteSpace=wrap;html=1;fontSize=30;" vertex="1" parent="WPn6TP8sn5g8j_nVukEv-36">
          <mxGeometry x="30" y="250" width="150" height="50" as="geometry" />
        </mxCell>
        <mxCell id="WPn6TP8sn5g8j_nVukEv-13" value="identifier" style="shape=module;align=left;spacingLeft=20;align=center;verticalAlign=middle;whiteSpace=wrap;html=1;fontSize=30;" vertex="1" parent="WPn6TP8sn5g8j_nVukEv-36">
          <mxGeometry x="330" y="250" width="160" height="50" as="geometry" />
        </mxCell>
        <mxCell id="WPn6TP8sn5g8j_nVukEv-14" value="ddl" style="shape=module;align=left;spacingLeft=20;align=center;verticalAlign=middle;whiteSpace=wrap;html=1;fontSize=30;" vertex="1" parent="WPn6TP8sn5g8j_nVukEv-36">
          <mxGeometry x="220" y="130" width="80" height="50" as="geometry" />
        </mxCell>
        <mxCell id="WPn6TP8sn5g8j_nVukEv-15" value="constraint" style="shape=module;align=left;spacingLeft=20;align=center;verticalAlign=middle;whiteSpace=wrap;html=1;fontSize=30;" vertex="1" parent="WPn6TP8sn5g8j_nVukEv-36">
          <mxGeometry x="310" y="420" width="180" height="50" as="geometry" />
        </mxCell>
        <mxCell id="WPn6TP8sn5g8j_nVukEv-16" value="column" style="shape=module;align=left;spacingLeft=20;align=center;verticalAlign=middle;whiteSpace=wrap;html=1;fontSize=30;" vertex="1" parent="WPn6TP8sn5g8j_nVukEv-36">
          <mxGeometry x="30" y="420" width="150" height="50" as="geometry" />
        </mxCell>
        <mxCell id="WPn6TP8sn5g8j_nVukEv-23" value="Use" style="endArrow=open;endSize=12;dashed=1;html=1;rounded=0;exitX=0.5;exitY=1;exitDx=0;exitDy=0;entryX=0.5;entryY=0;entryDx=0;entryDy=0;fontSize=20;" edge="1" parent="WPn6TP8sn5g8j_nVukEv-36" source="WPn6TP8sn5g8j_nVukEv-14" target="WPn6TP8sn5g8j_nVukEv-12">
          <mxGeometry width="160" relative="1" as="geometry">
            <mxPoint x="-187.854818523154" y="223.23529411764704" as="sourcePoint" />
            <mxPoint x="-20.872757613683778" y="223.23529411764704" as="targetPoint" />
          </mxGeometry>
        </mxCell>
        <mxCell id="WPn6TP8sn5g8j_nVukEv-24" value="Use" style="endArrow=open;endSize=12;dashed=1;html=1;rounded=0;exitX=0.5;exitY=1;exitDx=0;exitDy=0;entryX=0.5;entryY=0;entryDx=0;entryDy=0;fontSize=20;" edge="1" parent="WPn6TP8sn5g8j_nVukEv-36" source="WPn6TP8sn5g8j_nVukEv-12" target="WPn6TP8sn5g8j_nVukEv-16">
          <mxGeometry width="160" relative="1" as="geometry">
            <mxPoint x="-187.854818523154" y="126.17647058823528" as="sourcePoint" />
            <mxPoint x="-20.872757613683778" y="126.17647058823528" as="targetPoint" />
          </mxGeometry>
        </mxCell>
        <mxCell id="WPn6TP8sn5g8j_nVukEv-26" value="Use" style="endArrow=open;endSize=12;dashed=1;html=1;rounded=0;exitX=0.5;exitY=1;exitDx=0;exitDy=0;entryX=0.5;entryY=0;entryDx=0;entryDy=0;fontSize=20;" edge="1" parent="WPn6TP8sn5g8j_nVukEv-36" source="WPn6TP8sn5g8j_nVukEv-12" target="WPn6TP8sn5g8j_nVukEv-15">
          <mxGeometry width="160" relative="1" as="geometry">
            <mxPoint x="-187.854818523154" y="126.17647058823528" as="sourcePoint" />
            <mxPoint x="-20.872757613683778" y="126.17647058823528" as="targetPoint" />
          </mxGeometry>
        </mxCell>
        <mxCell id="WPn6TP8sn5g8j_nVukEv-27" value="Use" style="endArrow=open;endSize=12;dashed=1;html=1;rounded=0;exitX=1;exitY=0.5;exitDx=0;exitDy=0;fontSize=20;" edge="1" parent="WPn6TP8sn5g8j_nVukEv-36" source="WPn6TP8sn5g8j_nVukEv-16" target="WPn6TP8sn5g8j_nVukEv-15">
          <mxGeometry width="160" relative="1" as="geometry">
            <mxPoint x="-187.854818523154" y="126.17647058823528" as="sourcePoint" />
            <mxPoint x="-20.872757613683778" y="126.17647058823528" as="targetPoint" />
          </mxGeometry>
        </mxCell>
        <mxCell id="WPn6TP8sn5g8j_nVukEv-28" value="Use" style="endArrow=open;endSize=12;dashed=1;html=1;rounded=0;exitX=0.5;exitY=1;exitDx=0;exitDy=0;entryX=0.5;entryY=0;entryDx=0;entryDy=0;fontSize=20;" edge="1" parent="WPn6TP8sn5g8j_nVukEv-36" source="WPn6TP8sn5g8j_nVukEv-14" target="WPn6TP8sn5g8j_nVukEv-13">
          <mxGeometry width="160" relative="1" as="geometry">
            <mxPoint x="-187.854818523154" y="223.23529411764704" as="sourcePoint" />
            <mxPoint x="-20.872757613683778" y="223.23529411764704" as="targetPoint" />
          </mxGeometry>
        </mxCell>
        <mxCell id="WPn6TP8sn5g8j_nVukEv-31" value="Use" style="endArrow=open;endSize=12;dashed=1;html=1;rounded=0;entryX=0.5;entryY=0;entryDx=0;entryDy=0;exitX=0.5;exitY=1;exitDx=0;exitDy=0;fontSize=20;" edge="1" parent="1" source="WPn6TP8sn5g8j_nVukEv-29" target="WPn6TP8sn5g8j_nVukEv-3">
          <mxGeometry width="160" relative="1" as="geometry">
            <mxPoint x="536.2553191489362" y="573.8235294117648" as="sourcePoint" />
            <mxPoint x="882.7234042553191" y="573.8235294117648" as="targetPoint" />
          </mxGeometry>
        </mxCell>
        <mxCell id="WPn6TP8sn5g8j_nVukEv-34" value="" style="group" vertex="1" connectable="0" parent="1">
          <mxGeometry x="300" y="450" width="530" height="510" as="geometry" />
        </mxCell>
        <mxCell id="WPn6TP8sn5g8j_nVukEv-5" value="«generator»&lt;br style=&quot;font-size: 30px;&quot;&gt;&lt;b style=&quot;font-size: 30px;&quot;&gt;shacl&lt;/b&gt;" style="html=1;dropTarget=0;whiteSpace=wrap;fontSize=30;verticalAlign=top;labelBackgroundColor=none;" vertex="1" parent="WPn6TP8sn5g8j_nVukEv-34">
          <mxGeometry width="530" height="510" as="geometry" />
        </mxCell>
        <mxCell id="WPn6TP8sn5g8j_nVukEv-6" value="" style="shape=module;jettyWidth=8;jettyHeight=4;fontSize=30;verticalAlign=top;labelBackgroundColor=none;" vertex="1" parent="WPn6TP8sn5g8j_nVukEv-5">
          <mxGeometry x="1" width="20" height="20" relative="1" as="geometry">
            <mxPoint x="-27" y="7" as="offset" />
          </mxGeometry>
        </mxCell>
        <mxCell id="WPn6TP8sn5g8j_nVukEv-9" value="iri_builder" style="shape=module;align=left;spacingLeft=20;align=center;verticalAlign=middle;whiteSpace=wrap;html=1;fontSize=30;" vertex="1" parent="WPn6TP8sn5g8j_nVukEv-34">
          <mxGeometry x="40" y="370" width="170" height="50" as="geometry" />
        </mxCell>
        <mxCell id="WPn6TP8sn5g8j_nVukEv-10" value="shacl_provider" style="shape=module;align=left;spacingLeft=20;align=center;verticalAlign=middle;whiteSpace=wrap;html=1;fontSize=30;" vertex="1" parent="WPn6TP8sn5g8j_nVukEv-34">
          <mxGeometry x="260" y="370" width="240" height="50" as="geometry" />
        </mxCell>
        <mxCell id="WPn6TP8sn5g8j_nVukEv-11" value="shacl_shaper" style="shape=module;align=left;spacingLeft=20;align=center;verticalAlign=middle;whiteSpace=wrap;html=1;fontSize=30;" vertex="1" parent="WPn6TP8sn5g8j_nVukEv-34">
          <mxGeometry x="160" y="190" width="220" height="50" as="geometry" />
        </mxCell>
        <mxCell id="WPn6TP8sn5g8j_nVukEv-20" value="Use" style="endArrow=open;endSize=12;dashed=1;html=1;rounded=0;exitX=0.5;exitY=1;exitDx=0;exitDy=0;entryX=0.5;entryY=0;entryDx=0;entryDy=0;fontSize=20;" edge="1" parent="WPn6TP8sn5g8j_nVukEv-34" source="WPn6TP8sn5g8j_nVukEv-11" target="WPn6TP8sn5g8j_nVukEv-9">
          <mxGeometry width="160" relative="1" as="geometry">
            <mxPoint x="451.9148936170212" y="305.8664546899841" as="sourcePoint" />
            <mxPoint x="612.595744680851" y="305.8664546899841" as="targetPoint" />
          </mxGeometry>
        </mxCell>
        <mxCell id="WPn6TP8sn5g8j_nVukEv-21" value="Use" style="endArrow=open;endSize=12;dashed=1;html=1;rounded=0;exitX=0.5;exitY=1;exitDx=0;exitDy=0;entryX=0.5;entryY=0;entryDx=0;entryDy=0;fontSize=20;" edge="1" parent="WPn6TP8sn5g8j_nVukEv-34" source="WPn6TP8sn5g8j_nVukEv-11" target="WPn6TP8sn5g8j_nVukEv-10">
          <mxGeometry width="160" relative="1" as="geometry">
            <mxPoint x="451.9148936170212" y="305.8664546899841" as="sourcePoint" />
            <mxPoint x="612.595744680851" y="305.8664546899841" as="targetPoint" />
          </mxGeometry>
        </mxCell>
        <mxCell id="WPn6TP8sn5g8j_nVukEv-30" value="Use" style="endArrow=open;endSize=12;dashed=1;html=1;rounded=0;exitX=0.5;exitY=1;exitDx=0;exitDy=0;entryX=0.5;entryY=0;entryDx=0;entryDy=0;fontSize=20;" edge="1" parent="1" source="WPn6TP8sn5g8j_nVukEv-29" target="WPn6TP8sn5g8j_nVukEv-5">
          <mxGeometry width="160" relative="1" as="geometry">
            <mxPoint x="693.5217021276594" y="573.8235294117648" as="sourcePoint" />
            <mxPoint x="651.7446808510638" y="826.1764705882352" as="targetPoint" />
          </mxGeometry>
        </mxCell>
      </root>
    </mxGraphModel>
  </diagram>
</mxfile>
